<svg xmlns="http://www.w3.org/2000/svg" width="445.099" height="403.798" viewBox="0 0 445.099 403.798">
  <g id="Business_deal-rafiki" data-name="Business deal-rafiki" transform="translate(-56.11 -75.761)">
    <g id="freepik--background-simple--inject-97" transform="translate(118.397 75.761)">
      <path id="Path_3027" data-name="Path 3027" d="M159.782,349.077c81.988,40.506,180.011-43.215,227.462-103.1,22.233-28.064,44.512-63.83,36.948-101.18-8.345-41.229-47.06-72.817-89.277-68.674-56.713,5.567-47.795,48.116-63.749,88.29-18.147,45.752-50.687,18.882-87.612,18.847C92.463,183.172,88.607,313.919,159.782,349.077Zm-7.977-101.352-.1.08Zm-1.309,1.022-.1.08ZM150.187,249Zm.149-.126-.149.115Z" transform="translate(-110.376 -75.761)" fill="#dce8f3"/>
      <path id="Path_3028" data-name="Path 3028" d="M151.805,247.725l-.1.08Zm-1.309,1.022-.1.08ZM150.187,249Zm.149-.126-.149.115Z" transform="translate(-110.376 -75.761)" fill="#dce8f3" opacity="0.9"/>
    </g>
    <g id="freepik--Shadow--inject-97" transform="translate(56.11 453.574)">
      <ellipse id="freepik--path--inject-97" cx="222.549" cy="12.993" rx="222.549" ry="12.993" fill="#dce8f3"/>
    </g>
    <g id="freepik--Contract--inject-97" transform="translate(252.65 92.644)">
      <path id="Path_3029" data-name="Path 3029" d="M272.787,134.491v15.048a4.017,4.017,0,0,1-4.006,4.006H231.856a4.017,4.017,0,0,1-4.006-4.006V94.983A4.017,4.017,0,0,1,231.856,91h36.868a4.017,4.017,0,0,1,4.063,3.983v23.806" transform="translate(-227.265 -90.392)" fill="#fff"/>
      <path id="Path_3030" data-name="Path 3030" d="M268.8,154.277H231.931a4.591,4.591,0,0,1-4.591-4.591V95.061a4.591,4.591,0,0,1,4.591-4.591H268.8a4.591,4.591,0,0,1,4.591,4.591v23.806h-1.217V95.061a3.443,3.443,0,0,0-3.443-3.443h-36.8a3.443,3.443,0,0,0-3.443,3.443v54.555a3.443,3.443,0,0,0,3.443,3.443H268.8a3.443,3.443,0,0,0,3.443-3.443V134.569h1.217v15.048a4.591,4.591,0,0,1-4.66,4.66Z" transform="translate(-227.34 -90.47)" fill="#478bca"/>
      <path id="Path_3031" data-name="Path 3031" d="M245.109,139.4a21.2,21.2,0,0,1,2.353-1.274,11.491,11.491,0,0,1,1.148-.448,4.3,4.3,0,0,1,1.354-.31l-.471-.264c-.08-.126-.126.2-.149.275l-.161.4a3.546,3.546,0,0,0-.287.9.712.712,0,0,0,.746.9,9.4,9.4,0,0,0,3.386-1.32H252.6c.126,0,.275.172.4.218a1.963,1.963,0,0,0,.585.115,8.745,8.745,0,0,1,1.343,0c.7.069.689-1.022,0-1.079a6.556,6.556,0,0,1-1.423,0c-.459-.1-.6-.425-1.079-.207s-.872.505-1.343.7a6.554,6.554,0,0,1-.666.241l-.436.126c-.126,0-.356,0-.172.184l.161.379c0-.735.78-1.423.574-2.181s-1.148-.425-1.71-.287a16.07,16.07,0,0,0-4.3,1.974.542.542,0,0,0,.539.941Z" transform="translate(-224.839 -83.7)" fill="#e0e0e0"/>
      <rect id="Rectangle_2208" data-name="Rectangle 2208" width="36.328" height="1.205" transform="translate(4.855 8.746)" fill="#e0e0e0"/>
      <rect id="Rectangle_2209" data-name="Rectangle 2209" width="32.219" height="1.205" transform="translate(4.855 17.298)" fill="#e0e0e0"/>
      <rect id="Rectangle_2210" data-name="Rectangle 2210" width="36.328" height="1.205" transform="translate(4.855 25.86)" fill="#e0e0e0"/>
      <rect id="Rectangle_2211" data-name="Rectangle 2211" width="9.986" height="1.205" transform="translate(4.855 34.423)" fill="#e0e0e0"/>
      <rect id="Rectangle_2212" data-name="Rectangle 2212" width="13.28" height="1.205" transform="translate(19.031 34.423)" fill="#e0e0e0"/>
      <rect id="Rectangle_2213" data-name="Rectangle 2213" width="36.328" height="1.205" transform="translate(4.855 42.974)" fill="#e0e0e0"/>
      <path id="Path_3032" data-name="Path 3032" d="M236.641,142.673a5.6,5.6,0,1,1,5.6-5.6A5.6,5.6,0,0,1,236.641,142.673Zm0-9.986a4.4,4.4,0,1,0,4.4,4.385,4.4,4.4,0,0,0-4.4-4.385Z" transform="translate(-226.793 -84.41)" fill="#478bca"/>
      <path id="Path_3033" data-name="Path 3033" d="M239.651,136.774a3.306,3.306,0,1,1-3.306-3.294,3.306,3.306,0,0,1,3.306,3.294Z" transform="translate(-226.497 -84.113)" fill="#478bca"/>
      <path id="Path_3034" data-name="Path 3034" d="M255.08,139.111a10.193,10.193,0,0,1,1.63-4.4c.826-1.251,1.825-2.3,2.743-3.524q2.772-3.443,5.739-6.887c3.88-4.511,7.817-8.976,12.109-13.165a.62.62,0,0,1,.953.758c-3.1,5.131-6.554,9.986-10.066,14.8-1.768,2.387-3.558,4.763-5.395,7.1-.93,1.148-1.779,2.387-2.812,3.443a10.17,10.17,0,0,1-3.9,2.594.735.735,0,0,1-.918-.436A.77.77,0,0,1,255.08,139.111Z" transform="translate(-223.24 -87.437)" fill="#478bca"/>
      <rect id="Rectangle_2214" data-name="Rectangle 2214" width="10.009" height="1.205" transform="translate(27.266 98.896) rotate(-41.09)" fill="#478bca"/>
      <rect id="Rectangle_2215" data-name="Rectangle 2215" width="14.589" height="1.205" transform="matrix(0.219, -0.976, 0.976, 0.219, 22.634, 96.368)" fill="#478bca"/>
      <rect id="Rectangle_2216" data-name="Rectangle 2216" width="1.205" height="6.141" transform="translate(13.711 93.863) rotate(-43.12)" fill="#478bca"/>
    </g>
    <g id="freepik--character-2--inject-97" transform="translate(267.491 81.099)">
      <path id="Path_3035" data-name="Path 3035" d="M318.472,411.2H308.7L307.51,388.59h9.756Z" transform="translate(-230.331 -34.859)" fill="#7f3e3b"/>
      <path id="Path_3036" data-name="Path 3036" d="M361.71,411.2h-9.768L348.12,388.59h9.756Z" transform="translate(-224.329 -34.859)" fill="#7f3e3b"/>
      <path id="Path_3037" data-name="Path 3037" d="M353.154,407.3h10.962a.8.8,0,0,1,.8.666l1.515,8.677a1.527,1.527,0,0,1-1.515,1.745c-3.822-.069-5.67-.3-10.5-.3-2.961,0-10.962.31-15.059.31s-4.442-4.052-2.755-4.419c7.61-1.641,12.419-3.914,14.922-6.072a2.491,2.491,0,0,1,1.63-.608Z" transform="translate(-226.172 -32.094)" fill="#263238"/>
      <path id="Path_3038" data-name="Path 3038" d="M310.979,407.3h10.652a.8.8,0,0,1,.8.666l1.515,8.677a1.5,1.5,0,0,1-1.492,1.745c-3.834-.069-9.389-.3-14.221-.3-5.647,0-7.082.31-13.716.31-4.006,0-4.924-4.052-3.225-4.419,7.713-1.664,10.5-1.848,17.286-5.911A4.706,4.706,0,0,1,310.979,407.3Z" transform="translate(-232.848 -32.094)" fill="#263238"/>
      <path id="Path_3039" data-name="Path 3039" d="M316.041,143.914,302.7,140s-13.59,32.288-18.193,34.434c-6.256,2.87-22.956,11.673-30.027,15.828-.482,1.6-.494,5.969.275,7.231,11.581-.918,35.341-8.781,39.909-13.165C305.09,174.32,316.041,143.914,316.041,143.914Z" transform="translate(-238.219 -71.604)" fill="#7f3e3b"/>
      <path id="Path_3040" data-name="Path 3040" d="M316.078,139.61c3.788,8.448-22.222,45.5-22.222,45.5L281.23,172s11.168-28.041,17.217-38.8C304.622,122.152,311.957,130.313,316.078,139.61Z" transform="translate(-234.216 -73.395)" fill="#478bca"/>
      <path id="Path_3041" data-name="Path 3041" d="M316.078,139.61c3.788,8.448-22.222,45.5-22.222,45.5L281.23,172s11.168-28.041,17.217-38.8C304.622,122.152,311.957,130.313,316.078,139.61Z" transform="translate(-234.216 -73.395)" fill="#fff" opacity="0.4"/>
      <path id="Path_3042" data-name="Path 3042" d="M280.8,165.318c-.792.471-2.491,3.558-2.87,5.1s8.505,13.406,11.96,12.924,7.4-3.845,8.115-5.659S282.465,164.342,280.8,165.318Z" transform="translate(-234.705 -67.87)" fill="#478bca"/>
      <path id="Path_3043" data-name="Path 3043" d="M256.765,183.339l-8.035-1.469.482,11.478s2.824,1.148,8.907-2.617Z" transform="translate(-239.02 -65.415)" fill="#7f3e3b"/>
      <path id="Path_3044" data-name="Path 3044" d="M240.27,185.691l1.469,7.059,8.666.643-.482-11.513Z" transform="translate(-240.27 -65.414)" fill="#7f3e3b"/>
      <path id="Path_3045" data-name="Path 3045" d="M307.51,388.6l.62,11.65h9.756l-.608-11.65Z" transform="translate(-230.331 -34.858)" opacity="0.2"/>
      <path id="Path_3046" data-name="Path 3046" d="M357.888,388.6H348.12l1.974,11.65h9.768Z" transform="translate(-224.329 -34.858)" opacity="0.2"/>
      <path id="Path_3047" data-name="Path 3047" d="M301.743,128.451s-13.028,33.539-4.695,88.439h52.214c.735-8.035-2.3-51.181,7.2-88.944a133.2,133.2,0,0,0-17.378-2.215,193.409,193.409,0,0,0-22.2,0A100.752,100.752,0,0,0,301.743,128.451Z" transform="translate(-232.289 -73.76)" fill="#478bca"/>
      <path id="Path_3048" data-name="Path 3048" d="M301.743,128.451s-13.028,33.539-4.695,88.439h52.214c.735-8.035-2.3-51.181,7.2-88.944a133.2,133.2,0,0,0-17.378-2.215,193.409,193.409,0,0,0-22.2,0A100.752,100.752,0,0,0,301.743,128.451Z" transform="translate(-232.289 -73.76)" opacity="0.2"/>
      <path id="Path_3049" data-name="Path 3049" d="M338.231,136.48c-1.148,6.221.08,21.085,5.188,38.268a251.3,251.3,0,0,1,5.739-43.835v-.069C345.692,130.489,339.344,130.649,338.231,136.48Z" transform="translate(-225.849 -72.974)" opacity="0.2"/>
      <path id="Path_3050" data-name="Path 3050" d="M334.483,107.61c-1.745,7.139-2.858,15.989,1.905,20.752,0,0-3.214,7.254-16.483,7.254-12.132,0-5.739-7.254-5.739-7.254,8.035-1.894,8.115-11.742,6.99-17.3Z" transform="translate(-229.596 -76.392)" fill="#7f3e3b"/>
      <path id="Path_3051" data-name="Path 3051" d="M319,133.262c7.817,2.445,9.366,4.947,9.366,4.947s9.745-3.96,9.378-12.546a19.638,19.638,0,0,0-3.811-2.2S333.107,129.819,319,133.262Z" transform="translate(-228.633 -74.049)" fill="#478bca"/>
      <path id="Path_3052" data-name="Path 3052" d="M320.2,133.107c-4.385.413-8.035,4.167-8.035,4.167s-2.789-2.927-.115-11.421c0,0,2.606-.884,4.763-1.343C316.755,124.521,315,131.271,320.2,133.107Z" transform="translate(-229.832 -73.894)" fill="#478bca"/>
      <path id="Path_3053" data-name="Path 3053" d="M320.14,111.076c.666,3.248.918,8.035-.62,11.719a13.132,13.132,0,0,0,3.616-1.148c4.591-2.112,6.956-5.452,9.5-10.33.23-1.274.505-2.514.8-3.707Z" transform="translate(-228.556 -76.392)" opacity="0.2"/>
      <path id="Path_3054" data-name="Path 3054" d="M319.512,87.749c-3.122,1.022-10.1,7.013-3.443,10.032S324.952,85.981,319.512,87.749Z" transform="translate(-229.477 -79.349)" fill="#263238"/>
      <path id="Path_3055" data-name="Path 3055" d="M340.855,102.188c-3.042,9.366-4.35,14.922-10.33,18.824-8.987,5.739-19.375-1.148-19.134-11.042.207-8.964,5.142-22.773,15.254-24.552S343.9,92.856,340.855,102.188Z" transform="translate(-229.758 -79.705)" fill="#7f3e3b"/>
      <path id="Path_3056" data-name="Path 3056" d="M325.729,92.645c-5.165.872-9.469.6-11.03-3.7s5.544-8.792,10.445-6.772c3.616-3.765,13.487-.872,14.761,2.743,5.739-.367,11.168,6.244,7.277,9.63a6.818,6.818,0,0,1,1.148,10.686c1.676,4.982-4.362,9.952-9.125,7.931-4.695-1.4-7.254-.253-7.908-3.283s1-5.957,4.993-6.543c-2.02-2.41-2.514-6.221-1.148-7.863C330.309,97.673,326.349,94.918,325.729,92.645Z" transform="translate(-229.301 -80.412)" fill="#263238"/>
      <path id="Path_3057" data-name="Path 3057" d="M319.022,108.922a6.956,6.956,0,0,0,5.085-1.63.241.241,0,0,0,0-.333.218.218,0,0,0-.321,0,6.6,6.6,0,0,1-5.578,1.377.241.241,0,0,0-.275.184.207.207,0,0,0,.172.264A9.181,9.181,0,0,0,319.022,108.922Z" transform="translate(-228.792 -76.498)" fill="#263238"/>
      <path id="Path_3058" data-name="Path 3058" d="M338.767,112.227a9.607,9.607,0,0,1-6.887,1.986c-3.2-.356-3.443-3.512-1.435-5.9,1.814-2.158,5.67-4.591,8.345-3.007S341.166,110.321,338.767,112.227Z" transform="translate(-227.131 -76.807)" fill="#7f3e3b"/>
      <path id="Path_3059" data-name="Path 3059" d="M331.667,205.113s-1.331,12.282-3.03,28.913c-1.951,18.859-4.373,43.341-5.911,61.982v.253c-.3,3.547-.562,6.887-.781,9.894-2.181,30.428,1.722,118.948,1.722,118.948H307.115s-15.243-90.333-14.864-121.3c.356-29.763,5.085-98.712,5.085-98.712Z" transform="translate(-232.588 -61.983)" fill="#478bca"/>
      <path id="Path_3060" data-name="Path 3060" d="M323.354,391.226c.08,0-.287,6.818-.287,6.818H304l-.482-7.484Z" transform="translate(-230.921 -34.568)" fill="#263238"/>
      <path id="Path_3061" data-name="Path 3061" d="M325.27,232.059c-1.951,18.859-4.373,43.341-5.911,61.982v.253c-3.639-17.688-4.775-39.68-3.363-75.893Z" transform="translate(-229.164 -60.016)" opacity="0.2"/>
      <path id="Path_3062" data-name="Path 3062" d="M312.82,205.11s7.621,70.545,12.362,98.494c5.2,30.612,25.722,121.507,25.722,121.507h17.883s-12.052-88.382-14.417-118.73c-2.548-32.9-7.817-101.271-7.817-101.271Z" transform="translate(-229.546 -61.98)" fill="#478bca"/>
      <path id="Path_3063" data-name="Path 3063" d="M364.405,391.6c.08,0,.62,6.4.62,6.4H345.375l-1.435-7.151Z" transform="translate(-224.946 -34.525)" fill="#263238"/>
      <path id="Path_3064" data-name="Path 3064" d="M323.171,99.849c-.207.769-.769,1.309-1.263,1.148s-.735-.826-.539-1.6.769-1.309,1.263-1.148S323.366,99.115,323.171,99.849Z" transform="translate(-228.293 -77.779)" fill="#263238"/>
      <path id="Path_3065" data-name="Path 3065" d="M315.691,98.209c-.207.769-.769,1.309-1.263,1.148s-.735-.815-.539-1.6.769-1.309,1.263-1.148S315.886,97.44,315.691,98.209Z" transform="translate(-229.398 -78.021)" fill="#263238"/>
      <path id="Path_3066" data-name="Path 3066" d="M319.627,98.86a30.5,30.5,0,0,1-5.337,5.819c1.01,1.561,3.443,1.481,3.443,1.481Z" transform="translate(-229.329 -77.685)" fill="#630f0f"/>
      <path id="Path_3067" data-name="Path 3067" d="M327.4,98.108a.471.471,0,0,1-.31-.264,3.443,3.443,0,0,0-2.456-2.135.436.436,0,0,1-.367-.528.482.482,0,0,1,.539-.39,4.293,4.293,0,0,1,3.145,2.663.494.494,0,0,1-.253.62.459.459,0,0,1-.3.034Z" transform="translate(-227.855 -78.287)" fill="#263238"/>
      <path id="Path_3068" data-name="Path 3068" d="M314.04,94.887a.689.689,0,0,1-.172-.1.459.459,0,0,1,0-.654,4.683,4.683,0,0,1,3.96-1.607.436.436,0,0,1,.367.528.494.494,0,0,1-.539.39h0a3.753,3.753,0,0,0-3.134,1.309A.505.505,0,0,1,314.04,94.887Z" transform="translate(-229.412 -78.624)" fill="#263238"/>
      <path id="Path_3069" data-name="Path 3069" d="M355.077,139.23l-12.327,7.461s13.774,29.843,13.693,34.859c-.23,9.366,3.8,29.671,2.709,40.369,1.515.539,5.739.666,7.071-.08,2.445-9.676,5.831-35.1,4.855-41.47C368.943,166.513,355.077,139.23,355.077,139.23Z" transform="translate(-225.122 -71.718)" fill="#7f3e3b"/>
      <path id="Path_3070" data-name="Path 3070" d="M350.281,127.643c9.182,1.343,22.268,47.944,22.268,47.944l-16.988,6.439s-14.8-25.252-18.422-36.6C333.236,133.577,340.445,126.2,350.281,127.643Z" transform="translate(-226.111 -73.457)" fill="#478bca"/>
      <path id="Path_3071" data-name="Path 3071" d="M350.281,127.643c9.182,1.343,22.268,47.944,22.268,47.944l-16.988,6.439s-14.8-25.252-18.422-36.6C333.236,133.577,340.445,126.2,350.281,127.643Z" transform="translate(-226.111 -73.457)" fill="#fff" opacity="0.4"/>
      <path id="Path_3072" data-name="Path 3072" d="M348.3,409.109a2.766,2.766,0,0,1-1.848-.505,1.3,1.3,0,0,1-.425-1.217.78.78,0,0,1,.425-.654c1.148-.551,4.167,1.377,4.511,1.607a.207.207,0,0,1,.092.23.253.253,0,0,1-.184.184,11.2,11.2,0,0,1-2.571.356Zm-1.343-2.055a.608.608,0,0,0-.3.057.3.3,0,0,0-.161.264.93.93,0,0,0,.275.849c.505.448,1.779.505,3.443.172a8.792,8.792,0,0,0-3.26-1.343Z" transform="translate(-224.642 -32.192)" fill="#478bca"/>
      <path id="Path_3073" data-name="Path 3073" d="M350.548,409.055a.184.184,0,0,1-.1,0c-.987-.539-2.835-2.686-2.571-3.776a.792.792,0,0,1,.758-.6,1.251,1.251,0,0,1,.976.287c1.09.93,1.148,3.753,1.148,3.868a.264.264,0,0,1-.115.218.311.311,0,0,1-.092,0Zm-1.779-4.006h-.1c-.3,0-.333.172-.344.23-.161.643,1.01,2.3,1.974,3.019a5.223,5.223,0,0,0-1-3.053A.792.792,0,0,0,348.769,405.049Z" transform="translate(-224.369 -32.483)" fill="#478bca"/>
      <path id="Path_3074" data-name="Path 3074" d="M305.084,409.112a3.616,3.616,0,0,1-2.353-.6,1.3,1.3,0,0,1-.379-1.148.8.8,0,0,1,.413-.62c1.217-.666,5.05,1.331,5.487,1.561a.218.218,0,0,1,.1.241.241.241,0,0,1-.2.2A17.113,17.113,0,0,1,305.084,409.112Zm-1.676-2.055a.953.953,0,0,0-.436.08.333.333,0,0,0-.161.253.826.826,0,0,0,.253.746c.574.528,2.169.62,4.35.264A12.225,12.225,0,0,0,303.408,407.057Z" transform="translate(-231.096 -32.196)" fill="#478bca"/>
      <path id="Path_3075" data-name="Path 3075" d="M307.8,409.056h-.1c-1.148-.528-3.443-2.64-3.156-3.742,0-.264.264-.585.9-.643a1.6,1.6,0,0,1,1.263.39c1.148,1.022,1.331,3.65,1.343,3.765a.252.252,0,0,1-.115.207A.172.172,0,0,1,307.8,409.056Zm-2.2-4.006h-.138c-.413,0-.448.207-.459.253-.138.666,1.366,2.3,2.537,3.042a5.257,5.257,0,0,0-1.148-3.007A1.148,1.148,0,0,0,305.6,405.05Z" transform="translate(-230.773 -32.484)" fill="#478bca"/>
      <rect id="Rectangle_2217" data-name="Rectangle 2217" width="68.559" height="48.024" rx="4.09" transform="translate(100.094 167.893) rotate(-7.43)" fill="#263238"/>
      <rect id="Rectangle_2218" data-name="Rectangle 2218" width="68.559" height="48.024" rx="4.09" transform="translate(100.094 167.893) rotate(-7.43)" opacity="0.3"/>
      <path id="Path_3076" data-name="Path 3076" d="M355.4,232.918a4.419,4.419,0,0,1-2.709-.93,4.5,4.5,0,0,1-1.71-2.961l-1.033-7.966a4.454,4.454,0,0,1,3.845-4.993l13.257-1.733a4.465,4.465,0,0,1,5,3.845l1.044,7.966a4.488,4.488,0,0,1-3.845,5h0l-13.269,1.722a5.023,5.023,0,0,1-.585.046Zm12.236-16.069h-.241l-13.269,1.733a1.859,1.859,0,0,0-1.607,2.089l1.033,7.966a1.882,1.882,0,0,0,.723,1.24,1.848,1.848,0,0,0,1.377.367l13.257-1.722a1.894,1.894,0,0,0,1.618-2.1l-1-7.874a1.859,1.859,0,0,0-.712-1.24,1.894,1.894,0,0,0-1.182-.425Zm1.446,12.982Z" transform="translate(-224.064 -60.622)" fill="#263238"/>
      <rect id="Rectangle_2219" data-name="Rectangle 2219" width="68.559" height="48.024" rx="4.09" transform="translate(105.681 167.166) rotate(-7.43)" fill="#263238"/>
      <path id="Path_3077" data-name="Path 3077" d="M358,210.135l-3.742,7.289,10.973.505a8.746,8.746,0,0,0-1.423-9.848Z" transform="translate(-223.421 -61.541)" fill="#7f3e3b"/>
      <path id="Path_3078" data-name="Path 3078" d="M358.45,221.867l6.543-.9.241-4.247-10.973-.505.172,2.376a3.547,3.547,0,0,0,4.017,3.271Z" transform="translate(-223.421 -60.338)" fill="#7f3e3b"/>
      <path id="Path_3079" data-name="Path 3079" d="M350.822,173.361c-.172.9,1.045,4.212,1.94,5.5s15.7,2.422,17.607-.494,1.986-8.1,1.079-9.837S351.178,171.422,350.822,173.361Z" transform="translate(-223.932 -67.443)" fill="#478bca"/>
    </g>
    <g id="freepik--character-1--inject-97" transform="translate(120.839 83.245)">
      <path id="Path_3080" data-name="Path 3080" d="M166.769,142.624c-1.848,2.422-3.857,5.073-5.739,7.679s-3.7,5.257-5.429,7.943a102.613,102.613,0,0,0-8.964,16.31c-.287.677-.551,1.354-.781,2.032q-.184.505-.344,1l-.161.505-.069.241v.069a7.208,7.208,0,0,0-.126,2.686,44.224,44.224,0,0,0,2.032,8.482c1.963,5.934,4.591,12.052,7.174,17.986l-5.865,3.719a98.381,98.381,0,0,1-11.363-17.55,46.8,46.8,0,0,1-3.937-10.617,18.617,18.617,0,0,1-.275-7.277l.092-.551.092-.367.172-.712c.1-.471.218-.941.356-1.4.253-.93.528-1.825.826-2.72a98.16,98.16,0,0,1,9.343-19.295c1.836-2.973,3.719-5.888,5.739-8.7s4.017-5.544,6.347-8.345Z" transform="translate(-109.52 -74.675)" fill="#263238"/>
      <path id="Path_3081" data-name="Path 3081" d="M150.921,196.2l6.037,3.2-6.887,8.138s-4.339-2.938-4.591-7.415Z" transform="translate(-107.629 -65.443)" fill="#ffc3bd"/>
      <path id="Path_3082" data-name="Path 3082" d="M164.5,204.006l-7.438,5.911-7.633-2.789,6.944-8.138Z" transform="translate(-107.045 -65.031)" fill="#ffc3bd"/>
      <path id="Path_3083" data-name="Path 3083" d="M241.6,181l7.139,3.684-.631,2.571-5.739,5.739s-4.132-3.214-4.04-7.69Z" transform="translate(-93.905 -67.69)" fill="#ffc3bd"/>
      <path id="Path_3084" data-name="Path 3084" d="M242.08,182.038l6.543-1.228,4.2,1.791-2.8.471-1.837,1.664Z" transform="translate(-93.35 -67.718)" fill="#ffc3bd"/>
      <path id="Path_3085" data-name="Path 3085" d="M255.376,193.18l-7.093,1.527a3.443,3.443,0,0,1-2.2-.264l-4.258-2.066,5.739-5.739,3.8-1.148,4.752,5.452a1.4,1.4,0,0,1-.735,2.238Z" transform="translate(-93.388 -67.026)" fill="#ffc3bd"/>
      <path id="Path_3086" data-name="Path 3086" d="M185.177,101.148c.161.769.689,1.309,1.148,1.148a1.353,1.353,0,0,0,.631-1.584c-.149-.769-.7-1.309-1.148-1.148A1.314,1.314,0,0,0,185.177,101.148Z" transform="translate(-101.769 -79.731)" fill="#263238"/>
      <path id="Path_3087" data-name="Path 3087" d="M185.71,102.09a28.168,28.168,0,0,0,5.016,5.842c-1.148,1.55-3.535,1.435-3.535,1.435Z" transform="translate(-101.682 -79.354)" fill="#ff5652"/>
      <path id="Path_3088" data-name="Path 3088" d="M182.057,98.01a.493.493,0,0,1-.31-.126.471.471,0,0,1,0-.654,4.591,4.591,0,0,1,3.926-1.527.471.471,0,0,1-.149.918h0a3.662,3.662,0,0,0-3.1,1.24A.448.448,0,0,1,182.057,98.01Z" transform="translate(-102.288 -80.301)" fill="#263238"/>
      <path id="Path_3089" data-name="Path 3089" d="M167.336,112.79c1.331,6.772,2.123,16.15-2.606,20.661,0,0,1.848,6.887,14.428,6.887,13.843,0,6.657-6.037,6.657-6.037-5.739-1.779-5.739-8.333-4.385-13.59Z" transform="translate(-104.783 -77.772)" fill="#ffc3bd"/>
      <path id="Path_3090" data-name="Path 3090" d="M163.087,136c-1.148-1.814-.769-7.312.608-8.207,2.2-1.446,11.294-1.286,23.358,2.238-1.63,5.257,1.022,8.218,1.022,8.218Z" transform="translate(-105.126 -75.681)" fill="#478bca"/>
      <path id="Path_3091" data-name="Path 3091" d="M154.867,143.32c-4.3,4.247-5.555,12.947-5.085,18.882,1.056-1.8,2.181-3.6,3.34-5.36,1.733-2.7,3.581-5.326,5.441-7.966.517-.723,1.045-1.458,1.584-2.192.1-.471.2-.941.287-1.4Z" transform="translate(-107.007 -73.259)" opacity="0.2"/>
      <path id="Path_3092" data-name="Path 3092" d="M127.953,407.252a3.019,3.019,0,0,0,2.3-.126.9.9,0,0,0,.218-1.022,1.033,1.033,0,0,0-.562-.643c-1.251-.6-4.132.574-4.247.62a.219.219,0,0,0-.012.4A11.48,11.48,0,0,0,127.953,407.252Zm1.515-1.481.253.08a.6.6,0,0,1,.333.379c.115.39,0,.517-.08.562-.494.425-2.3,0-3.639-.494a7.14,7.14,0,0,1,3.179-.562Z" transform="translate(-110.579 -34.537)" fill="#478bca"/>
      <path id="Path_3093" data-name="Path 3093" d="M125.7,406.8h.1c1.056-.3,3.294-1.894,3.317-2.938a.712.712,0,0,0-.562-.712,1.148,1.148,0,0,0-.976.08c-1.228.631-2.009,3.191-2.043,3.294a.169.169,0,0,0,.161.275Zm2.617-3.283h.1c.264.092.264.23.264.287,0,.62-1.492,1.859-2.583,2.365a5.314,5.314,0,0,1,1.687-2.594.735.735,0,0,1,.574-.057Z" transform="translate(-110.579 -34.864)" fill="#478bca"/>
      <path id="Path_3094" data-name="Path 3094" d="M187.577,408.607c1.148,0,2.3-.161,2.72-.7a.826.826,0,0,0,0-.953,1.148,1.148,0,0,0-.7-.517c-1.538-.413-4.775,1.423-4.913,1.5a.207.207,0,0,0-.1.23.218.218,0,0,0,.172.184A16.6,16.6,0,0,0,187.577,408.607Zm1.469-1.791a1.662,1.662,0,0,1,.425,0,.643.643,0,0,1,.425.31c.161.275.1.4,0,.482-.425.6-2.766.608-4.488.367a10,10,0,0,1,3.639-1.159Z" transform="translate(-101.85 -34.376)" fill="#478bca"/>
      <path id="Path_3095" data-name="Path 3095" d="M184.778,408.637h.092c1.148-.494,3.329-2.5,3.168-3.547,0-.253-.218-.551-.815-.62a1.664,1.664,0,0,0-1.217.379c-1.148.976-1.435,3.443-1.446,3.57a.241.241,0,0,0,.092.2A.218.218,0,0,0,184.778,408.637Zm2.3-3.753h.138c.39,0,.413.2.425.241.1.631-1.4,2.2-2.537,2.881a5.119,5.119,0,0,1,1.217-2.847,1.148,1.148,0,0,1,.723-.275Z" transform="translate(-101.852 -34.659)" fill="#478bca"/>
      <path id="Path_3096" data-name="Path 3096" d="M175.89,410.671h9.251l.918-21.441h-9.251Z" transform="translate(-103.134 -36.911)" fill="#ffc3bd"/>
      <path id="Path_3097" data-name="Path 3097" d="M116.83,407.1,125.76,409l8.1-20.511-8.93-1.894Z" transform="translate(-111.863 -37.301)" fill="#ffc3bd"/>
      <path id="Path_3098" data-name="Path 3098" d="M127.226,405.376l-10.17-2.2a.8.8,0,0,0-.9.448l-3.535,7.656a1.366,1.366,0,0,0,.976,1.905c3.57.7,5.337.872,9.8,1.836,2.755.6,8.964,2.112,12.764,2.927s5.1-2.824,3.616-3.5c-6.634-3.03-9.412-5.739-11.214-8.2a2.227,2.227,0,0,0-1.343-.872Z" transform="translate(-112.503 -34.853)" fill="#263238"/>
      <path id="Path_3099" data-name="Path 3099" d="M185.544,407H175.431a.826.826,0,0,0-.792.631l-1.825,8.23a1.354,1.354,0,0,0,1.331,1.653c3.65-.069,8.919-.275,13.5-.275,5.36,0,7.266.287,13.544.287,3.8,0,4.855-3.834,3.271-4.19-7.243-1.584-10.434-1.756-16.689-5.613A4.351,4.351,0,0,0,185.544,407Z" transform="translate(-103.593 -34.284)" fill="#263238"/>
      <path id="Path_3100" data-name="Path 3100" d="M186,389.24l-.471,11.042H176.27l.471-11.042Z" transform="translate(-103.078 -36.909)" opacity="0.2"/>
      <path id="Path_3101" data-name="Path 3101" d="M124.428,386.59l8.93,1.894-4.178,10.571-8.93-1.882Z" transform="translate(-111.358 -37.301)" opacity="0.2"/>
      <path id="Path_3102" data-name="Path 3102" d="M191.07,202.75S180.556,273.5,174.794,300c-6.313,29.028-40.173,125.111-40.173,125.111L118,421.466s23.691-78.258,28.982-118.833c4.075-31.163,12.1-99.86,12.1-99.86Z" transform="translate(-111.691 -64.475)" fill="#263238"/>
      <path id="Path_3103" data-name="Path 3103" d="M191.07,202.75S180.556,273.5,174.794,300c-6.313,29.028-40.173,125.111-40.173,125.111L118,421.466s23.691-78.258,28.982-118.833c4.075-31.163,12.1-99.86,12.1-99.86Z" transform="translate(-111.691 -64.475)" fill="#fff" opacity="0.1"/>
      <path id="Path_3104" data-name="Path 3104" d="M138.728,392.08c.069,0-3.088,5.992-3.088,5.992L117,394.031l1.573-5.6Z" transform="translate(-111.838 -37.029)" fill="#263238"/>
      <path id="Path_3105" data-name="Path 3105" d="M177.2,224.722c-12.144,2.387-10.858,47.692-9.4,70.992,3.443-16.471,8.632-48.208,12.144-70.659A4.235,4.235,0,0,0,177.2,224.722Z" transform="translate(-104.465 -61.241)" opacity="0.3"/>
      <path id="Path_3106" data-name="Path 3106" d="M201.2,202.75s1.274,69.213.264,97.449c-1.045,29.361-11.294,125.513-11.294,125.513H174.435s-.574-94.43-1.274-123.275C172.4,271,168.57,202.75,168.57,202.75Z" transform="translate(-104.216 -64.475)" fill="#263238"/>
      <path id="Path_3107" data-name="Path 3107" d="M201.2,202.75s1.274,69.213.264,97.449c-1.045,29.361-11.294,125.513-11.294,125.513H174.435s-.574-94.43-1.274-123.275C172.4,271,168.57,202.75,168.57,202.75Z" transform="translate(-104.216 -64.475)" fill="#fff" opacity="0.1"/>
      <path id="Path_3108" data-name="Path 3108" d="M192.641,391.56c.069,0-.9,6.508-.9,6.508h-19.1l-.517-5.808Z" transform="translate(-103.689 -36.567)" fill="#263238"/>
      <path id="Path_3109" data-name="Path 3109" d="M204.972,142.214c1.894,10.009,5.406,37.97-.08,78.648l-53.58-.826c-.31-7.1,5.337-45.671.115-79.911a7.392,7.392,0,0,1,6.347-8.425c2.709-.367,5.854-.712,8.953-.861a183.653,183.653,0,0,1,21.039,0c2.3.218,4.591.551,6.634.907A13.108,13.108,0,0,1,204.972,142.214Z" transform="translate(-106.769 -75.149)" fill="#263238"/>
      <path id="Path_3110" data-name="Path 3110" d="M200.509,149.37l-9.022,2.238c-.689,8.425,4.867,17.963,10.422,25.252a241.475,241.475,0,0,0-1.4-27.49Z" transform="translate(-100.837 -72.365)" opacity="0.2"/>
      <path id="Path_3111" data-name="Path 3111" d="M197.715,136.79c1.527,2.743,3.179,5.739,4.878,8.528s3.443,5.647,5.2,8.4a112.22,112.22,0,0,0,11.478,15.289c.528.539,1.045,1.09,1.572,1.6l.39.379.31.275c.172.184.471.39.689.585a39.547,39.547,0,0,0,3.662,2.537c2.7,1.664,5.59,3.294,8.528,4.867,5.877,3.156,11.96,6.256,17.963,9.389l-2.376,6.531a173.45,173.45,0,0,1-20.029-6.095c-3.283-1.228-6.577-2.56-9.871-4.178a46.606,46.606,0,0,1-5.085-2.824c-.448-.321-.872-.574-1.354-.953l-.689-.528-.562-.471c-.769-.62-1.469-1.263-2.181-1.905a79.5,79.5,0,0,1-7.576-8.127c-2.3-2.789-4.442-5.739-6.474-8.6s-3.96-5.888-5.739-8.93-3.547-6.026-5.2-9.332Z" transform="translate(-101.75 -74.225)" fill="#263238"/>
      <path id="Path_3112" data-name="Path 3112" d="M162.553,106.218c2.5,9.343,3.443,14.922,9.263,18.824,8.677,5.854,19.513-.861,19.811-10.766.3-8.907-3.845-22.692-13.866-24.575a13.188,13.188,0,0,0-15.208,16.517Z" transform="translate(-105.178 -81.221)" fill="#ffc3bd"/>
      <path id="Path_3113" data-name="Path 3113" d="M183.009,107.394c2.227-3.271,3.076-8.3,1.515-10.721,1.458.608,11.972,1.331,7.851-6.152s-12.385-9.55-19.582-7.484l3.5,1.01s-9.837-.712-14.623,3.271a25.761,25.761,0,0,0,2.72,0s-10.537,4.97-5.946,8.746c-7.4,5.636-2.387,13.441,9.8,25.08,2.123,1.917,8.138,1.217,9.469.069C176.868,116.14,181.758,109.253,183.009,107.394Z" transform="translate(-106.224 -82.282)" fill="#263238"/>
      <path id="Path_3114" data-name="Path 3114" d="M180.83,98.61c2.181,1.6,4.878,6.29,6.129,8.632s2.571,2.043,3.2,2.973,3.214,16.655.448,19.168-11.088-1.458-12.178-4.35.907-9.986,1.446-11.6a16.517,16.517,0,0,0-.482-8.4C178.431,102.283,180.83,98.61,180.83,98.61Z" transform="translate(-102.805 -79.868)" fill="#263238"/>
      <path id="Path_3115" data-name="Path 3115" d="M176.227,105.182a8.838,8.838,0,0,0,4.189,5.464c2.537,1.148,2.847-1.8,2.353-4.591-.448-2.537-1.148-4.591-3.2-5.578C177.146,99.225,175.389,102.4,176.227,105.182Z" transform="translate(-103.115 -79.634)" fill="#ffc3bd"/>
    </g>
  </g>
</svg>
